<?xml version="1.0" standalone="no"?><!DOCTYPE svg PUBLIC "-//W3C//DTD SVG 1.1//EN" "http://www.w3.org/Graphics/SVG/1.1/DTD/svg11.dtd"><svg t="1677650492649" class="icon" viewBox="0 0 1024 1024" version="1.1" xmlns="http://www.w3.org/2000/svg" p-id="6108" width="16" height="16" xmlns:xlink="http://www.w3.org/1999/xlink"><path d="M737.101 807.531 990.297 78.301 710.078 797.087Z" fill="#009EB7" p-id="6109"></path><path d="M776.657 822.816 990.297 78.301 750.664 812.778Z" fill="#009EB7" p-id="6110"></path><path d="M695.1 791.3 990.297 78.301 669.612 781.455Z" fill="#009EB7" p-id="6111"></path><path d="M824.234 841.198 852.167 851.99 990.297 78.301Z" fill="#009EB7" p-id="6112"></path><path d="M812.951 836.835 990.297 78.301 788.982 827.576Z" fill="#009EB7" p-id="6113"></path><path d="M459.344 700.209 990.297 78.301 424.819 686.866Z" fill="#009EB7" p-id="6114"></path><path d="M510.003 719.79 990.297 78.301 483.502 709.549Z" fill="#009EB7" p-id="6115"></path><path d="M653.145 775.091 990.297 78.301 623.922 763.796Z" fill="#009EB7" p-id="6116"></path><path d="M605.791 756.791 990.297 78.301 579.756 746.738Z" fill="#009EB7" p-id="6117"></path><path d="M559.779 739.016 990.297 78.301 532.146 728.339Z" fill="#009EB7" p-id="6118"></path><path d="M36.617 504.328 390.035 655.77 946.557 63.347Z" fill="#009EB7" p-id="6119"></path><path d="M425.33 957.53 623.922 791.3 425.33 713.709Z" fill="#009EB7" p-id="6120"></path></svg>